<?xml version="1.0" standalone="no"?>
<!DOCTYPE svg PUBLIC "-//W3C//DTD SVG 20010904//EN"
 "http://www.w3.org/TR/2001/REC-SVG-20010904/DTD/svg10.dtd">
<svg version="1.0" xmlns="http://www.w3.org/2000/svg"
 width="358.000000pt" height="358.000000pt" viewBox="0 0 358.000000 358.000000"
 preserveAspectRatio="xMidYMid meet">
<metadata>
Created by potrace 1.11, written by Peter Selinger 2001-2013
</metadata>
<g transform="translate(0.000000,358.000000) scale(0.100000,-0.100000)"
fill="#000000" stroke="none">
<path d="M2007 3445 c-26 -7 -51 -13 -55 -14 -32 -9 -116 -68 -147 -103 -42
-48 -84 -132 -92 -181 -3 -18 -6 -33 -7 -35 -3 -3 -156 -57 -326 -116 -69 -24
-145 -51 -170 -60 -25 -9 -52 -19 -60 -21 -8 -2 -59 -20 -114 -39 l-99 -36
-28 24 c-41 35 -126 74 -183 85 -111 21 -251 -23 -332 -104 -42 -43 -92 -119
-99 -152 -2 -10 -7 -36 -12 -58 -31 -143 36 -299 167 -389 l46 -31 -2 -405
c-1 -223 -2 -411 -3 -417 0 -7 -15 -20 -32 -28 -45 -24 -85 -62 -119 -115
-104 -162 -85 -361 47 -497 52 -54 102 -84 168 -102 123 -33 260 -4 352 73 29
25 33 25 74 12 58 -17 279 -95 474 -166 49 -18 90 -32 90 -31 0 0 40 -14 89
-32 l89 -33 14 -54 c64 -250 330 -373 565 -261 111 53 205 197 209 320 l2 48
79 41 c43 23 83 42 89 42 6 0 23 -8 37 -19 41 -28 138 -61 193 -65 106 -7 240
35 311 98 85 75 139 189 144 302 3 85 -8 140 -47 219 -34 71 -79 121 -151 171
l-53 36 -1 111 c-1 62 -5 266 -7 455 l-6 342 30 16 c49 25 134 115 162 170 60
119 60 272 -1 389 -31 59 -124 152 -178 179 -22 10 -47 22 -56 27 -23 11 -104
23 -158 22 -72 -1 -110 -11 -185 -48 l-70 -35 -83 40 c-79 39 -82 42 -82 74 0
19 -9 62 -19 95 -59 189 -265 305 -454 256z m-114 -1145 c42 -13 118 -6 156
14 22 12 29 10 68 -13 38 -23 43 -30 43 -61 0 -64 70 -175 120 -192 7 -2 12
-85 14 -251 3 -243 2 -248 -18 -259 -26 -13 -72 -64 -89 -98 -7 -14 -14 -45
-16 -70 -3 -50 -18 -72 -62 -90 -24 -10 -36 -10 -57 -1 -68 31 -186 17 -226
-28 -16 -17 -25 -15 -214 52 -108 38 -207 72 -219 74 -15 4 -26 19 -37 50 -18
51 -68 119 -96 128 -17 5 -18 20 -19 239 l-1 233 40 32 c41 33 80 96 80 128 0
14 27 27 123 60 67 23 165 57 217 76 l95 34 30 -22 c16 -12 47 -28 68 -35z"/>
</g>
</svg>
